<?xml version="1.0" encoding="utf-8"?>
<!-- Generator: Adobe Illustrator 25.2.1, SVG Export Plug-In . SVG Version: 6.00 Build 0)  -->
<svg version="1.1" id="Layer_1" xmlns="http://www.w3.org/2000/svg" xmlns:xlink="http://www.w3.org/1999/xlink" x="0px" y="0px"
	 viewBox="0 0 2400 1800" style="enable-background:new 0 0 2400 1800;" xml:space="preserve">
<style type="text/css">
	.st0{fill:#0B5394;}
	.st1{fill:#6FA8DC;}
</style>
<g>
	<path class="st0" d="M1033.4,1075.8H818.8V727.2h88.5v277.1h126.1V1075.8z"/>
	<path class="st0" d="M1151.5,821.9v253.8h-87.6V821.9H1151.5z M1061.7,758.7L1061.7,758.7c0-13.1,3.7-22.9,11-29.4
		c7.3-6.4,19.1-9.6,35.4-9.6l0,0c16.3,0,28.2,3.3,35.6,9.8c7.4,6.6,11.2,16.3,11.2,29.2l0,0c0,25.7-15.6,38.5-46.8,38.5l0,0
		C1077.1,797.3,1061.7,784.4,1061.7,758.7z"/>
	<path class="st0" d="M1270.7,727.2v348.6h-87.6V727.2H1270.7z"/>
	<g>
		<path class="st1" d="M1298.9,698.6v402.8l282.3,84.7V613.9L1298.9,698.6z M1560.1,1071.3h-60.7l-16.8-33.6h-1.8
			c-11.8,14.6-23.8,24.6-36,30c-12.3,5.4-28.1,8-47.5,8c-23.9,0-42.7-7.2-56.5-21.5c-13.7-14.4-20.6-34.5-20.6-60.5
			c0-27.1,9.4-47.2,28.2-60.4c18.8-13.2,46.1-20.7,81.7-22.3l42.4-1.3v-3.6c0-20.9-10.3-31.3-30.9-31.3c-18.5,0-42,6.3-70.6,18.8
			l-25.3-57.8c29.6-15.2,66.9-22.8,112-22.8c32.5,0,57.7,8,75.6,24.1c17.8,16.1,26.8,38.7,26.8,67.7V1071.3z"/>
		<path class="st1" d="M1409.5,990.6c0,15.5,8.3,23.3,24.9,23.3c10.6,0,19.6-3.3,27.2-10c7.5-6.7,11.3-15.5,11.3-26.3v-19.7
			l-20.1,0.9C1423.9,959.9,1409.5,970.5,1409.5,990.6z"/>
	</g>
</g>
</svg>
