<?xml version="1.0" encoding="utf-8"?>
<!-- Generator: Adobe Illustrator 25.2.1, SVG Export Plug-In . SVG Version: 6.00 Build 0)  -->
<svg version="1.1" id="Layer_1" xmlns="http://www.w3.org/2000/svg" xmlns:xlink="http://www.w3.org/1999/xlink" x="0px" y="0px"
	 viewBox="0 0 2400 1800" style="enable-background:new 0 0 2400 1800;" xml:space="preserve">
<style type="text/css">
	.st0{fill:#FFFFFF;}
	.st1{fill:#6FA8DC;}
</style>
<g>
	<path class="st0" d="M1033.4,1103.1H818.8V754.5h88.5v277.1h126.1V1103.1z"/>
	<path class="st0" d="M1151.5,849.2v253.8h-87.6V849.2H1151.5z M1061.7,786.1L1061.7,786.1c0-13.1,3.7-22.9,11-29.4
		c7.3-6.4,19.1-9.6,35.4-9.6l0,0c16.3,0,28.2,3.3,35.6,9.8c7.4,6.6,11.2,16.3,11.2,29.2l0,0c0,25.7-15.6,38.5-46.8,38.5l0,0
		C1077.1,824.6,1061.7,811.8,1061.7,786.1z"/>
	<path class="st0" d="M1270.7,754.5v348.6h-87.6V754.5H1270.7z"/>
	<g>
		<path class="st1" d="M1409.5,1018c0,15.5,8.3,23.3,24.9,23.3c10.6,0,19.6-3.3,27.2-10c7.5-6.7,11.3-15.5,11.3-26.3v-19.7
			l-20.1,0.9C1423.9,987.2,1409.5,997.8,1409.5,1018z"/>
		<path class="st1" d="M1298.9,725.9v402.8l282.3,84.7V641.2L1298.9,725.9z M1560.1,1098.6h-60.7l-16.8-33.6h-1.8
			c-11.8,14.6-23.8,24.6-36,30c-12.3,5.4-28.1,8-47.5,8c-23.9,0-42.7-7.2-56.5-21.5c-13.7-14.4-20.6-34.5-20.6-60.5
			c0-27.1,9.4-47.2,28.2-60.4c18.8-13.2,46.1-20.7,81.7-22.3l42.4-1.3v-3.6c0-20.9-10.3-31.3-30.9-31.3c-18.5,0-42,6.3-70.6,18.8
			l-25.3-57.8c29.6-15.2,66.9-22.8,112-22.8c32.5,0,57.7,8,75.6,24.1c17.8,16.1,26.8,38.7,26.8,67.7V1098.6z"/>
	</g>
	<g>
		<path class="st1" d="M909,719.6l-6.2-23.4h-40.6l-6.3,23.4h-37.1l40.8-125.6h45.1L946,719.6H909z M895.8,668.5l-5.4-20.5
			c-1.3-4.6-2.8-10.5-4.6-17.7c-1.8-7.2-3-12.4-3.5-15.6c-0.5,2.9-1.5,7.7-3,14.4c-1.5,6.7-4.9,19.8-10.1,39.4H895.8z"/>
		<path class="st1" d="M1032.4,689.9c0,10.4-3.5,18.2-10.6,23.5c-7.1,5.3-17.2,8-30.5,8c-7.2,0-13.4-0.4-18.7-1.2
			c-5.3-0.8-10.7-2.2-16.3-4.2v-26.8c5.2,2.3,10.9,4.2,17.1,5.6c6.2,1.5,11.7,2.2,16.6,2.2c7.2,0,10.9-1.7,10.9-5c0-1.7-1-3.2-3-4.6
			c-2-1.3-7.9-3.9-17.7-7.8c-8.9-3.6-15.1-7.8-18.6-12.4c-3.5-4.6-5.3-10.5-5.3-17.7c0-9,3.5-16,10.4-21c7-5,16.8-7.5,29.5-7.5
			c6.4,0,12.4,0.7,18,2.1c5.6,1.4,11.4,3.4,17.5,6.1l-9.1,21.6c-4.4-2-9.2-3.7-14.1-5.1c-5-1.4-9-2.1-12.1-2.1c-5.5,0-8.2,1.3-8.2,4
			c0,1.7,1,3.1,2.9,4.2c1.9,1.2,7.4,3.5,16.6,7.1c6.8,2.8,11.8,5.5,15.2,8.2c3.3,2.7,5.8,5.8,7.4,9.5
			C1031.6,680.3,1032.4,684.7,1032.4,689.9z"/>
		<path class="st1" d="M1083.3,665.2c4-6.4,7.5-11.5,10.3-15.1l21.7-27.4h37.3l-33.6,41.2l35.8,55.7h-38.2l-21.2-34.7l-10.9,8.3
			v26.4h-33.6V586.6h33.6v52.3c0,9-0.6,17.7-1.9,26.3H1083.3z"/>
	</g>
</g>
</svg>
