<svg xmlns="http://www.w3.org/2000/svg" xmlns:xlink="http://www.w3.org/1999/xlink" width="2596" zoomAndPan="magnify" viewBox="0 0 1946.88 1370.999942" height="1828" preserveAspectRatio="xMidYMid meet" version="1.0"><defs><g/><clipPath id="6e2d85fe4b"><path d="M 1049.691406 354.785156 L 1597.90625 354.785156 L 1597.90625 903 L 1049.691406 903 Z M 1049.691406 354.785156 " clip-rule="nonzero"/></clipPath></defs><g fill="#1b6ca3" fill-opacity="1"><g transform="translate(19.428192, 1217.217127)"><g><path d="M 116.21875 0 L 116.21875 -993.71875 L 459.09375 -993.71875 L 459.09375 -889.125 L 462.96875 -889.125 C 552.070312 -978.226562 646.988281 -1022.78125 747.71875 -1022.78125 C 820.03125 -1022.78125 887.820312 -1007.925781 951.09375 -978.21875 C 1014.375 -948.519531 1062.160156 -902.675781 1094.453125 -840.6875 C 1195.179688 -962.082031 1304.945312 -1022.78125 1423.75 -1022.78125 C 1529.644531 -1022.78125 1620.6875 -993.078125 1696.875 -933.671875 C 1773.070312 -874.265625 1811.171875 -781.285156 1811.171875 -654.734375 L 1811.171875 0 L 1468.3125 0 L 1468.3125 -561.75 C 1468.3125 -614.695312 1453.78125 -658.925781 1424.71875 -694.4375 C 1395.664062 -729.957031 1352.082031 -747.71875 1293.96875 -747.71875 C 1243.601562 -747.71875 1205.179688 -732.539062 1178.703125 -702.1875 C 1152.234375 -671.84375 1137.707031 -635.363281 1135.125 -592.75 L 1135.125 0 L 792.265625 0 L 792.265625 -561.75 C 792.265625 -614.695312 777.734375 -658.925781 748.671875 -694.4375 C 719.617188 -729.957031 676.035156 -747.71875 617.921875 -747.71875 C 564.972656 -747.71875 525.265625 -731.25 498.796875 -698.3125 C 472.328125 -665.382812 459.09375 -626.320312 459.09375 -581.125 L 459.09375 0 Z M 116.21875 0 "/></g></g></g><path fill="#d6d5d0" d="M 1334.460938 633.398438 C 1334.460938 634.050781 1334.425781 634.703125 1334.363281 635.351562 C 1334.300781 636.003906 1334.203125 636.648438 1334.078125 637.289062 C 1333.949219 637.929688 1333.789062 638.558594 1333.601562 639.183594 C 1333.410156 639.808594 1333.191406 640.421875 1332.941406 641.027344 C 1332.691406 641.628906 1332.414062 642.21875 1332.105469 642.792969 C 1331.796875 643.371094 1331.464844 643.929688 1331.101562 644.472656 C 1330.738281 645.015625 1330.351562 645.539062 1329.9375 646.042969 C 1329.523438 646.546875 1329.082031 647.03125 1328.621094 647.492188 C 1328.160156 647.953125 1327.679688 648.390625 1327.171875 648.804688 C 1326.667969 649.21875 1326.144531 649.609375 1325.601562 649.96875 C 1325.058594 650.332031 1324.5 650.667969 1323.925781 650.976562 C 1323.347656 651.285156 1322.761719 651.5625 1322.15625 651.8125 C 1321.554688 652.0625 1320.941406 652.28125 1320.316406 652.46875 C 1319.691406 652.660156 1319.058594 652.820312 1318.417969 652.945312 C 1317.777344 653.074219 1317.132812 653.167969 1316.484375 653.234375 C 1315.835938 653.296875 1315.183594 653.328125 1314.53125 653.328125 C 1313.878906 653.328125 1313.226562 653.296875 1312.578125 653.234375 C 1311.925781 653.167969 1311.28125 653.074219 1310.640625 652.945312 C 1310.003906 652.820312 1309.371094 652.660156 1308.746094 652.46875 C 1308.121094 652.28125 1307.507812 652.0625 1306.902344 651.8125 C 1306.300781 651.5625 1305.710938 651.285156 1305.136719 650.976562 C 1304.558594 650.667969 1304 650.332031 1303.457031 649.96875 C 1302.914062 649.609375 1302.390625 649.21875 1301.886719 648.804688 C 1301.382812 648.390625 1300.898438 647.953125 1300.4375 647.492188 C 1299.976562 647.03125 1299.539062 646.546875 1299.125 646.042969 C 1298.710938 645.539062 1298.324219 645.015625 1297.960938 644.472656 C 1297.597656 643.929688 1297.261719 643.371094 1296.953125 642.792969 C 1296.648438 642.21875 1296.367188 641.628906 1296.117188 641.027344 C 1295.867188 640.421875 1295.648438 639.808594 1295.460938 639.183594 C 1295.269531 638.558594 1295.113281 637.929688 1294.984375 637.289062 C 1294.855469 636.648438 1294.761719 636.003906 1294.695312 635.351562 C 1294.632812 634.703125 1294.601562 634.050781 1294.601562 633.398438 C 1294.601562 632.746094 1294.632812 632.097656 1294.695312 631.445312 C 1294.761719 630.796875 1294.855469 630.152344 1294.984375 629.511719 C 1295.113281 628.871094 1295.269531 628.238281 1295.460938 627.613281 C 1295.648438 626.988281 1295.867188 626.375 1296.117188 625.773438 C 1296.367188 625.171875 1296.648438 624.582031 1296.953125 624.003906 C 1297.261719 623.429688 1297.597656 622.871094 1297.960938 622.328125 C 1298.324219 621.785156 1298.710938 621.261719 1299.125 620.757812 C 1299.539062 620.253906 1299.976562 619.769531 1300.4375 619.308594 C 1300.898438 618.847656 1301.382812 618.410156 1301.886719 617.996094 C 1302.390625 617.582031 1302.914062 617.191406 1303.457031 616.828125 C 1304 616.464844 1304.558594 616.132812 1305.136719 615.824219 C 1305.710938 615.515625 1306.300781 615.238281 1306.902344 614.988281 C 1307.507812 614.738281 1308.121094 614.519531 1308.746094 614.328125 C 1309.371094 614.140625 1310.003906 613.980469 1310.640625 613.855469 C 1311.28125 613.726562 1311.925781 613.628906 1312.578125 613.566406 C 1313.226562 613.503906 1313.878906 613.46875 1314.53125 613.46875 C 1315.183594 613.46875 1315.835938 613.503906 1316.484375 613.566406 C 1317.132812 613.628906 1317.777344 613.726562 1318.417969 613.855469 C 1319.058594 613.980469 1319.691406 614.140625 1320.316406 614.328125 C 1320.941406 614.519531 1321.554688 614.738281 1322.15625 614.988281 C 1322.761719 615.238281 1323.347656 615.515625 1323.925781 615.824219 C 1324.5 616.132812 1325.058594 616.464844 1325.601562 616.828125 C 1326.144531 617.191406 1326.667969 617.582031 1327.171875 617.996094 C 1327.679688 618.410156 1328.160156 618.847656 1328.621094 619.308594 C 1329.082031 619.769531 1329.523438 620.253906 1329.9375 620.757812 C 1330.351562 621.261719 1330.738281 621.785156 1331.101562 622.328125 C 1331.464844 622.871094 1331.796875 623.429688 1332.105469 624.003906 C 1332.414062 624.582031 1332.691406 625.171875 1332.941406 625.773438 C 1333.191406 626.375 1333.410156 626.988281 1333.601562 627.613281 C 1333.789062 628.238281 1333.949219 628.871094 1334.078125 629.511719 C 1334.203125 630.152344 1334.300781 630.796875 1334.363281 631.445312 C 1334.425781 632.097656 1334.460938 632.746094 1334.460938 633.398438 Z M 1334.460938 633.398438 " fill-opacity="1" fill-rule="nonzero"/><path fill="#d6d5d0" d="M 1253.164062 633.398438 C 1253.164062 634.050781 1253.132812 634.703125 1253.070312 635.351562 C 1253.003906 636.003906 1252.910156 636.648438 1252.78125 637.289062 C 1252.65625 637.929688 1252.496094 638.558594 1252.308594 639.183594 C 1252.117188 639.808594 1251.898438 640.421875 1251.648438 641.027344 C 1251.398438 641.628906 1251.121094 642.21875 1250.8125 642.792969 C 1250.503906 643.371094 1250.167969 643.929688 1249.804688 644.472656 C 1249.445312 645.015625 1249.054688 645.539062 1248.640625 646.042969 C 1248.226562 646.546875 1247.789062 647.03125 1247.328125 647.492188 C 1246.867188 647.953125 1246.382812 648.390625 1245.878906 648.804688 C 1245.375 649.21875 1244.851562 649.609375 1244.308594 649.96875 C 1243.765625 650.332031 1243.207031 650.667969 1242.628906 650.976562 C 1242.054688 651.285156 1241.464844 651.5625 1240.863281 651.8125 C 1240.257812 652.0625 1239.644531 652.28125 1239.019531 652.46875 C 1238.398438 652.660156 1237.765625 652.820312 1237.125 652.945312 C 1236.484375 653.074219 1235.839844 653.167969 1235.191406 653.234375 C 1234.539062 653.296875 1233.890625 653.328125 1233.234375 653.328125 C 1232.582031 653.328125 1231.933594 653.296875 1231.28125 653.234375 C 1230.632812 653.167969 1229.988281 653.074219 1229.347656 652.945312 C 1228.707031 652.820312 1228.074219 652.660156 1227.449219 652.46875 C 1226.828125 652.28125 1226.210938 652.0625 1225.609375 651.8125 C 1225.007812 651.5625 1224.417969 651.285156 1223.839844 650.976562 C 1223.265625 650.667969 1222.707031 650.332031 1222.164062 649.96875 C 1221.621094 649.609375 1221.097656 649.21875 1220.59375 648.804688 C 1220.089844 648.390625 1219.605469 647.953125 1219.144531 647.492188 C 1218.683594 647.03125 1218.246094 646.546875 1217.832031 646.042969 C 1217.417969 645.539062 1217.027344 645.015625 1216.664062 644.472656 C 1216.304688 643.929688 1215.96875 643.371094 1215.660156 642.792969 C 1215.351562 642.21875 1215.074219 641.628906 1214.824219 641.027344 C 1214.574219 640.421875 1214.355469 639.808594 1214.164062 639.183594 C 1213.976562 638.558594 1213.816406 637.929688 1213.691406 637.289062 C 1213.5625 636.648438 1213.46875 636.003906 1213.402344 635.351562 C 1213.339844 634.703125 1213.308594 634.050781 1213.308594 633.398438 C 1213.308594 632.746094 1213.339844 632.097656 1213.402344 631.445312 C 1213.46875 630.796875 1213.5625 630.152344 1213.691406 629.511719 C 1213.816406 628.871094 1213.976562 628.238281 1214.164062 627.613281 C 1214.355469 626.988281 1214.574219 626.375 1214.824219 625.773438 C 1215.074219 625.171875 1215.351562 624.582031 1215.660156 624.003906 C 1215.96875 623.429688 1216.304688 622.871094 1216.664062 622.328125 C 1217.027344 621.785156 1217.417969 621.261719 1217.832031 620.757812 C 1218.246094 620.253906 1218.683594 619.769531 1219.144531 619.308594 C 1219.605469 618.847656 1220.089844 618.410156 1220.59375 617.996094 C 1221.097656 617.582031 1221.621094 617.191406 1222.164062 616.828125 C 1222.707031 616.464844 1223.265625 616.132812 1223.839844 615.824219 C 1224.417969 615.515625 1225.007812 615.238281 1225.609375 614.988281 C 1226.210938 614.738281 1226.828125 614.519531 1227.449219 614.328125 C 1228.074219 614.140625 1228.707031 613.980469 1229.347656 613.855469 C 1229.988281 613.726562 1230.632812 613.628906 1231.28125 613.566406 C 1231.933594 613.503906 1232.582031 613.46875 1233.234375 613.46875 C 1233.890625 613.46875 1234.539062 613.503906 1235.191406 613.566406 C 1235.839844 613.628906 1236.484375 613.726562 1237.125 613.855469 C 1237.765625 613.980469 1238.398438 614.140625 1239.019531 614.328125 C 1239.644531 614.519531 1240.257812 614.738281 1240.863281 614.988281 C 1241.464844 615.238281 1242.054688 615.515625 1242.628906 615.824219 C 1243.207031 616.132812 1243.765625 616.464844 1244.308594 616.828125 C 1244.851562 617.191406 1245.375 617.582031 1245.878906 617.996094 C 1246.382812 618.410156 1246.867188 618.847656 1247.328125 619.308594 C 1247.789062 619.769531 1248.226562 620.253906 1248.640625 620.757812 C 1249.054688 621.261719 1249.445312 621.785156 1249.804688 622.328125 C 1250.167969 622.871094 1250.503906 623.429688 1250.8125 624.003906 C 1251.121094 624.582031 1251.398438 625.171875 1251.648438 625.773438 C 1251.898438 626.375 1252.117188 626.988281 1252.308594 627.613281 C 1252.496094 628.238281 1252.65625 628.871094 1252.78125 629.511719 C 1252.910156 630.152344 1253.003906 630.796875 1253.070312 631.445312 C 1253.132812 632.097656 1253.164062 632.746094 1253.164062 633.398438 Z M 1253.164062 633.398438 " fill-opacity="1" fill-rule="nonzero"/><path fill="#d6d5d0" d="M 1415.75 633.398438 C 1415.75 634.050781 1415.71875 634.703125 1415.652344 635.351562 C 1415.589844 636.003906 1415.492188 636.648438 1415.367188 637.289062 C 1415.238281 637.929688 1415.082031 638.558594 1414.890625 639.183594 C 1414.703125 639.808594 1414.480469 640.421875 1414.230469 641.027344 C 1413.980469 641.628906 1413.703125 642.21875 1413.394531 642.792969 C 1413.089844 643.371094 1412.753906 643.929688 1412.390625 644.472656 C 1412.027344 645.015625 1411.640625 645.539062 1411.226562 646.042969 C 1410.8125 646.546875 1410.375 647.03125 1409.910156 647.492188 C 1409.449219 647.953125 1408.96875 648.390625 1408.460938 648.804688 C 1407.957031 649.21875 1407.433594 649.609375 1406.890625 649.96875 C 1406.347656 650.332031 1405.789062 650.667969 1405.214844 650.976562 C 1404.640625 651.285156 1404.050781 651.5625 1403.445312 651.8125 C 1402.84375 652.0625 1402.230469 652.28125 1401.605469 652.46875 C 1400.980469 652.660156 1400.347656 652.820312 1399.707031 652.945312 C 1399.066406 653.074219 1398.421875 653.167969 1397.773438 653.234375 C 1397.125 653.296875 1396.472656 653.328125 1395.820312 653.328125 C 1395.167969 653.328125 1394.515625 653.296875 1393.867188 653.234375 C 1393.21875 653.167969 1392.570312 653.074219 1391.933594 652.945312 C 1391.292969 652.820312 1390.660156 652.660156 1390.035156 652.46875 C 1389.410156 652.28125 1388.796875 652.0625 1388.191406 651.8125 C 1387.589844 651.5625 1387 651.285156 1386.425781 650.976562 C 1385.851562 650.667969 1385.289062 650.332031 1384.746094 649.96875 C 1384.207031 649.609375 1383.679688 649.21875 1383.175781 648.804688 C 1382.671875 648.390625 1382.1875 647.953125 1381.726562 647.492188 C 1381.265625 647.03125 1380.828125 646.546875 1380.414062 646.042969 C 1380 645.539062 1379.613281 645.015625 1379.25 644.472656 C 1378.886719 643.929688 1378.550781 643.371094 1378.242188 642.792969 C 1377.9375 642.21875 1377.65625 641.628906 1377.40625 641.027344 C 1377.15625 640.421875 1376.9375 639.808594 1376.75 639.183594 C 1376.558594 638.558594 1376.402344 637.929688 1376.273438 637.289062 C 1376.144531 636.648438 1376.050781 636.003906 1375.988281 635.351562 C 1375.921875 634.703125 1375.890625 634.050781 1375.890625 633.398438 C 1375.890625 632.746094 1375.921875 632.097656 1375.988281 631.445312 C 1376.050781 630.796875 1376.144531 630.152344 1376.273438 629.511719 C 1376.402344 628.871094 1376.558594 628.238281 1376.75 627.613281 C 1376.9375 626.988281 1377.15625 626.375 1377.40625 625.773438 C 1377.65625 625.171875 1377.9375 624.582031 1378.242188 624.003906 C 1378.550781 623.429688 1378.886719 622.871094 1379.25 622.328125 C 1379.613281 621.785156 1380 621.261719 1380.414062 620.757812 C 1380.828125 620.253906 1381.265625 619.769531 1381.726562 619.308594 C 1382.1875 618.847656 1382.671875 618.410156 1383.175781 617.996094 C 1383.679688 617.582031 1384.207031 617.191406 1384.746094 616.828125 C 1385.289062 616.464844 1385.851562 616.132812 1386.425781 615.824219 C 1387 615.515625 1387.589844 615.238281 1388.191406 614.988281 C 1388.796875 614.738281 1389.410156 614.519531 1390.035156 614.328125 C 1390.660156 614.140625 1391.292969 613.980469 1391.933594 613.855469 C 1392.570312 613.726562 1393.21875 613.628906 1393.867188 613.566406 C 1394.515625 613.503906 1395.167969 613.46875 1395.820312 613.46875 C 1396.472656 613.46875 1397.125 613.503906 1397.773438 613.566406 C 1398.421875 613.628906 1399.066406 613.726562 1399.707031 613.855469 C 1400.347656 613.980469 1400.980469 614.140625 1401.605469 614.328125 C 1402.230469 614.519531 1402.84375 614.738281 1403.445312 614.988281 C 1404.050781 615.238281 1404.640625 615.515625 1405.214844 615.824219 C 1405.789062 616.132812 1406.347656 616.464844 1406.890625 616.828125 C 1407.433594 617.191406 1407.957031 617.582031 1408.460938 617.996094 C 1408.96875 618.410156 1409.449219 618.847656 1409.910156 619.308594 C 1410.375 619.769531 1410.8125 620.253906 1411.226562 620.757812 C 1411.640625 621.261719 1412.027344 621.785156 1412.390625 622.328125 C 1412.753906 622.871094 1413.089844 623.429688 1413.394531 624.003906 C 1413.703125 624.582031 1413.980469 625.171875 1414.230469 625.773438 C 1414.480469 626.375 1414.703125 626.988281 1414.890625 627.613281 C 1415.082031 628.238281 1415.238281 628.871094 1415.367188 629.511719 C 1415.492188 630.152344 1415.589844 630.796875 1415.652344 631.445312 C 1415.71875 632.097656 1415.75 632.746094 1415.75 633.398438 Z M 1415.75 633.398438 " fill-opacity="1" fill-rule="nonzero"/><g clip-path="url(#6e2d85fe4b)"><path fill="#d6d5d0" d="M 1323.5625 354.625 C 1172.21875 354.625 1049.527344 477.3125 1049.527344 628.65625 C 1049.527344 780 1172.21875 902.6875 1323.5625 902.6875 C 1474.90625 902.6875 1597.59375 780 1597.59375 628.65625 C 1597.59375 477.3125 1474.90625 354.625 1323.5625 354.625 Z M 1411.882812 749.480469 C 1399.074219 756.480469 1384.386719 760.464844 1368.773438 760.464844 L 1262.21875 760.464844 C 1212.5 760.464844 1172.191406 720.152344 1172.191406 670.4375 L 1172.191406 586.878906 C 1172.191406 537.160156 1212.5 496.851562 1262.21875 496.851562 L 1368.773438 496.851562 C 1418.488281 496.851562 1458.800781 537.160156 1458.800781 586.878906 L 1458.800781 670.445312 C 1458.800781 685.054688 1455.238281 698.816406 1449.054688 711.023438 C 1452.257812 725.539062 1459.617188 741.578125 1474.929688 756.082031 C 1452.035156 764 1429.039062 757.675781 1411.882812 749.480469 Z M 1411.882812 749.480469 " fill-opacity="1" fill-rule="nonzero"/></g></svg>